HIERARCHY
ROOT Hips
{
	OFFSET 0.000000 0.000000 0.000000
	CHANNELS 6 Xposition Yposition Zposition Zrotation Yrotation Xrotation 
	JOINT LowerBack
	{
		OFFSET 0.000000 0.000000 0.000000
		CHANNELS 3 Zrotation Yrotation Xrotation
		JOINT Spine
		{
			OFFSET 0.028270 2.035590 -0.193380
			CHANNELS 3 Zrotation Yrotation Xrotation
			JOINT Spine1
			{
				OFFSET 0.056720 2.048850 -0.042750
				CHANNELS 3 Zrotation Yrotation Xrotation
				JOINT Neck
				{
					OFFSET 0.000000 0.000000 0.000000
					CHANNELS 3 Zrotation Yrotation Xrotation
					JOINT Neck1
					{
						OFFSET -0.054170 1.746240 0.172020
						CHANNELS 3 Zrotation Yrotation Xrotation
						JOINT Head
						{
							OFFSET 0.104070 1.761360 -0.123970
							CHANNELS 3 Zrotation Yrotation Xrotation
							End Site
							{
								OFFSET 0.000000 0.000000 0.000000
							}
						}
					}
				}
				JOINT LeftShoulder
				{
					OFFSET 0.000000 0.000000 0.000000
					CHANNELS 3 Zrotation Yrotation Xrotation
					JOINT LeftArm
					{
						OFFSET 3.362410 1.200890 -0.311210
						CHANNELS 3 Zrotation Yrotation Xrotation
						JOINT LeftForeArm
						{
							OFFSET 4.983000 -0.000000 -0.000000
							CHANNELS 3 Zrotation Yrotation Xrotation
							JOINT LeftHand
							{
								OFFSET 3.483560 -0.000000 -0.000000
								CHANNELS 3 Zrotation Yrotation Xrotation
								JOINT LeftFingerBase
								{
									OFFSET 0.000000 0.000000 0.000000
									CHANNELS 3 Zrotation Yrotation Xrotation
									JOINT LeftHandIndex1
									{
										OFFSET 0.715260 -0.000000 -0.000000
										CHANNELS 3 Zrotation Yrotation Xrotation
										End Site
										{
											OFFSET 0.000000 0.000000 0.000000
										}
									}
								}
								JOINT LThumb
								{
									OFFSET 0.000000 0.000000 0.000000
									CHANNELS 3 Zrotation Yrotation Xrotation
									End Site
									{
										OFFSET 0.000000 0.000000 0.000000
									}
								}
							}
						}
					}
				}
				JOINT RightShoulder
				{
					OFFSET 0.000000 0.000000 0.000000
					CHANNELS 3 Zrotation Yrotation Xrotation
					JOINT RightArm
					{
						OFFSET -3.136600 1.374050 -0.404650
						CHANNELS 3 Zrotation Yrotation Xrotation
						JOINT RightForeArm
						{
							OFFSET -5.241900 -0.000000 -0.000000
							CHANNELS 3 Zrotation Yrotation Xrotation
							JOINT RightHand
							{
								OFFSET -3.444170 -0.000000 -0.000000
								CHANNELS 3 Zrotation Yrotation Xrotation
								JOINT RightFingerBase
								{
									OFFSET 0.000000 0.000000 0.000000
									CHANNELS 3 Zrotation Yrotation Xrotation
									JOINT RightHandIndex1
									{
										OFFSET -0.622530 -0.000000 -0.000000
										CHANNELS 3 Zrotation Yrotation Xrotation
										End Site
										{
											OFFSET 0.000000 0.000000 0.000000
										}
									}
								}
								JOINT RThumb
								{
									OFFSET 0.000000 0.000000 0.000000
									CHANNELS 3 Zrotation Yrotation Xrotation
									End Site
									{
										OFFSET 0.000000 0.000000 0.000000
									}
								}
							}
						}
					}
				}
			}
		}
	}
}
}
MOTION
Frames: 14
Frame Time: 0.008333
0.792960 16.700541 -3.271516 84.239202 -76.418057 -85.452246 -12.148617 1.230264 12.624084 -3.191059 1.698302 -1.759191 -6.933320 1.602309 -3.140130 10.765032 7.156535 0.760875 -4.740458 -0.395575 1.777833 0.000000 0.000000 0.000000 -5.268817 -3.181987 2.812814 -66.033303 -2.153461 5.992498 -3.209024 -24.563181 -0.000413 6.794151 -1.994952 -0.119804 -0.032447 0.018016 -0.000000 0.000000 0.000000 0.000000 0.000000 0.000000 0.000000 20.789909 9.206600 2.335401 71.253543 7.412433 -6.016630 3.083678 1.742638 0.007530 -0.900882 8.057519 -0.067914 0.058166 -0.076451 0.000000 0.000000 0.000000 0.000000 0.000000 0.000000 0.000000 
0.791221 16.688614 -3.261868 85.485772 -76.421186 -86.995281 -12.197682 1.201129 12.361814 -3.197717 1.684413 -1.780276 -6.938160 1.591294 -3.026380 10.746288 6.868571 0.554478 -4.730817 -0.394098 1.728814 0.000000 0.000000 0.000000 -5.371684 -2.340348 2.714441 -66.364202 -2.111084 5.611594 -3.180574 -25.051509 -0.000242 6.780308 -2.048828 -0.122705 -0.032094 0.016741 -0.000000 0.000000 0.000000 0.000000 0.000000 0.000000 0.000000 20.721607 9.031320 2.243002 71.597293 7.549147 -6.131222 3.100449 1.836058 0.007723 -0.481826 7.773547 -0.036713 0.057516 -0.074890 0.000000 0.000000 0.000000 0.000000 0.000000 0.000000 0.000000 
0.790878 16.677314 -3.254942 86.716792 -76.370941 -88.639246 -12.302188 1.172435 12.223192 -3.216628 1.669153 -1.780824 -6.950197 1.580083 -2.935378 10.741347 6.536795 0.330364 -4.725349 -0.392586 1.673466 0.000000 0.000000 0.000000 -5.436611 -1.605900 2.630243 -66.634281 -1.974565 5.494493 -3.163483 -25.618046 0.000074 6.575891 -2.105850 -0.122101 -0.032316 0.014919 -0.000000 0.000000 0.000000 0.000000 0.000000 0.000000 0.000000 20.698718 8.820987 2.166884 71.939632 7.714309 -6.301709 3.099372 1.944843 0.007844 -0.202316 7.670350 -0.017211 0.056427 -0.074568 0.000000 0.000000 0.000000 0.000000 0.000000 0.000000 0.000000 
0.791993 16.667217 -3.250139 87.906795 -76.277267 -90.327185 -12.444921 1.147204 12.182324 -3.245232 1.654968 -1.765795 -6.967745 1.570418 -2.873304 10.747718 6.196131 0.109980 -4.723572 -0.391254 1.617933 0.000000 0.000000 0.000000 -5.473454 -1.008064 2.562742 -66.846874 -1.740472 5.583792 -3.156760 -26.222276 0.000491 6.190068 -2.173825 -0.118595 -0.032847 0.012645 -0.000000 0.000000 0.000000 0.000000 0.000000 0.000000 0.000000 20.713271 8.608045 2.107176 72.274884 7.861953 -6.607057 3.081211 2.076428 0.007922 -0.057155 7.759971 -0.007305 0.054901 -0.075537 0.000000 0.000000 0.000000 0.000000 0.000000 0.000000 0.000000 
0.794132 16.658868 -3.246200 89.023585 -76.162740 -91.980445 -12.595411 1.124556 12.201513 -3.278163 1.640780 -1.740213 -6.990261 1.560908 -2.830301 10.758011 5.830355 -0.107419 -4.725923 -0.390192 1.562765 0.000000 0.000000 0.000000 -5.494404 -0.538658 2.507536 -67.011226 -1.443493 5.830827 -3.159560 -26.810155 0.000962 5.641617 -2.257082 -0.112087 -0.033507 0.009984 -0.000000 0.000000 0.000000 0.000000 0.000000 0.000000 0.000000 20.758220 8.368170 2.059904 72.589461 8.000568 -6.959657 3.049849 2.230971 0.007961 -0.055633 8.030313 -0.007398 0.053245 -0.077596 0.000000 0.000000 0.000000 0.000000 0.000000 0.000000 0.000000 
0.794846 16.656776 -3.231024 92.884301 -76.088419 -96.043203 -12.600223 1.238490 11.875311 -3.284436 1.779290 -1.785192 -7.016415 1.696514 -2.781624 10.690590 5.473998 -0.340306 -4.733575 -0.390481 1.508672 0.000000 0.000000 0.000000 -5.723856 0.013581 2.420171 -67.100200 -1.105002 6.208584 -3.155428 -27.376371 0.001495 4.958119 -2.353122 -0.102486 -0.033317 0.005738 -0.000000 0.000000 0.000000 0.000000 0.000000 0.000000 0.000000 20.759804 8.237823 2.032941 72.786858 8.079287 -7.365768 3.024862 2.422125 0.008072 -0.172667 8.456287 -0.016388 0.052350 -0.081828 0.000000 0.000000 0.000000 0.000000 0.000000 0.000000 0.000000 
0.797643 16.653504 -3.226216 93.712614 -75.967621 -97.350615 -12.697447 1.208515 11.896106 -3.311612 1.753210 -1.761627 -7.044645 1.674048 -2.765542 10.696656 5.102187 -0.527676 -4.742417 -0.390171 1.462834 0.000000 0.000000 0.000000 -5.739099 0.246723 2.386199 -67.201337 -0.741195 6.630578 -3.175083 -27.800203 0.001904 4.180821 -2.462428 -0.090380 -0.033925 0.002627 -0.000000 0.000000 0.000000 0.000000 0.000000 0.000000 0.000000 20.834866 7.967182 1.999637 73.041723 8.135524 -7.820119 2.978017 2.636046 0.007987 -0.412876 9.001403 -0.036479 0.050874 -0.085330 0.000000 0.000000 0.000000 0.000000 0.000000 0.000000 0.000000 
0.799902 16.653214 -3.219937 94.409502 -75.881910 -98.456891 -12.738441 1.170118 11.878553 -3.329074 1.717424 -1.745946 -7.073803 1.641076 -2.753656 10.694916 4.735077 -0.697474 -4.753494 -0.390239 1.423036 0.000000 0.000000 0.000000 -5.755396 0.391672 2.359300 -67.293079 -0.377604 7.082949 -3.201932 -28.088595 0.002225 3.346084 -2.567825 -0.075476 -0.034471 -0.000579 -0.000000 0.000000 0.000000 0.000000 0.000000 0.000000 0.000000 20.910763 7.682335 1.967863 73.262830 8.139655 -8.294872 2.929006 2.880279 0.007812 -0.746152 9.615181 -0.067171 0.049729 -0.089078 0.000000 0.000000 0.000000 0.000000 0.000000 0.000000 0.000000 
0.800978 16.656073 -3.211892 95.014411 -75.840055 -99.395331 -12.716120 1.122299 11.813877 -3.334658 1.671583 -1.738959 -7.102557 1.597334 -2.739793 10.683920 4.375876 -0.851589 -4.765909 -0.390614 1.388903 0.000000 0.000000 0.000000 -5.770215 0.478021 2.336795 -67.389449 -0.038417 7.538813 -3.235171 -28.214778 0.002433 2.493338 -2.651196 -0.058074 -0.035022 -0.003759 -0.000000 0.000000 0.000000 0.000000 0.000000 0.000000 0.000000 20.980626 7.386035 1.934639 73.450694 8.091420 -8.774116 2.880998 3.152025 0.007549 -1.148784 10.244209 -0.107964 0.049017 -0.092784 0.000000 0.000000 0.000000 0.000000 0.000000 0.000000 0.000000 
0.800358 16.662077 -3.202037 95.569627 -75.840265 -100.213421 -12.635635 1.065456 11.700142 -3.328843 1.616428 -1.740364 -7.129503 1.543695 -2.720479 10.664239 4.027563 -0.992046 -4.778708 -0.391220 1.359821 0.000000 0.000000 0.000000 -5.778081 0.528002 2.316678 -67.502479 0.266031 7.970881 -3.273592 -28.167800 0.002521 1.657520 -2.690637 -0.039374 -0.035644 -0.006811 -0.000000 0.000000 0.000000 0.000000 0.000000 0.000000 0.000000 21.040429 7.083296 1.898522 73.609803 7.990985 -9.253199 2.836090 3.447118 0.007214 -1.593245 10.837512 -0.156758 0.048765 -0.096223 0.000000 0.000000 0.000000 0.000000 0.000000 0.000000 0.000000 
0.797518 16.670994 -3.190404 96.139288 -75.879078 -100.990595 -12.502426 1.001821 11.544273 -3.312164 1.554395 -1.747683 -7.152920 1.482886 -2.690997 10.635484 3.689172 -1.124778 -4.790585 -0.391909 1.333987 0.000000 0.000000 0.000000 -5.773403 0.575030 2.296437 -67.642589 0.515494 8.364811 -3.316190 -27.938259 0.002486 0.869220 -2.666407 -0.020678 -0.036441 -0.009593 -0.000000 0.000000 0.000000 0.000000 0.000000 0.000000 0.000000 21.084469 6.777842 1.857839 73.745005 7.845393 -9.724947 2.796382 3.760200 0.006840 -2.050621 11.350453 -0.210054 0.048986 -0.099227 0.000000 0.000000 0.000000 0.000000 0.000000 0.000000 0.000000 
0.792063 16.682428 -3.177180 96.772755 -75.948857 -101.792006 -12.325367 0.933405 11.353790 -3.285997 1.487476 -1.758679 -7.171168 1.417146 -2.648955 10.598336 3.357379 -1.255357 -4.800309 -0.392544 1.309699 0.000000 0.000000 0.000000 -5.751237 0.640357 2.274364 -67.816712 0.704612 8.702345 -3.361577 -27.532137 0.002344 0.150779 -2.560997 -0.003880 -0.037477 -0.011994 -0.000000 0.000000 0.000000 0.000000 0.000000 0.000000 0.000000 21.109290 6.471113 1.812178 73.862647 7.661949 -10.182236 2.763282 4.086452 0.006465 -2.492946 11.750126 -0.263551 0.049646 -0.101705 0.000000 0.000000 0.000000 0.000000 0.000000 0.000000 0.000000 
0.783499 16.696111 -3.162411 97.504757 -76.046708 -102.661380 -12.110443 0.861800 11.134541 -3.251322 1.417135 -1.771756 -7.183227 1.348094 -2.593282 10.553223 3.024734 -1.388894 -4.806714 -0.393008 1.285479 0.000000 0.000000 0.000000 -5.709619 0.732509 2.249121 -68.028011 0.839807 8.965579 -3.407892 -26.967656 0.002108 -0.482103 -2.362539 0.009414 -0.038748 -0.013945 -0.000000 0.000000 0.000000 0.000000 0.000000 0.000000 0.000000 21.111826 6.159010 1.762167 73.967308 7.448182 -10.608090 2.738116 4.424013 0.006127 -2.895952 12.014664 -0.312448 0.050720 -0.103614 0.000000 0.000000 0.000000 0.000000 0.000000 0.000000 0.000000 
0.771646 16.711536 -3.146260 98.344209 -76.169446 -103.615348 -11.862745 0.786802 10.890794 -3.208894 1.342971 -1.785586 -7.188280 1.275470 -2.522854 10.501470 2.684387 -1.531124 -4.808820 -0.393177 1.259697 0.000000 0.000000 0.000000 -5.647391 0.862317 2.220133 -68.275682 0.921601 9.142045 -3.453970 -26.264665 0.001795 -1.020736 -2.067250 0.017907 -0.040270 -0.015361 -0.000000 0.000000 0.000000 0.000000 0.000000 0.000000 0.000000 21.090675 5.837361 1.707844 74.062923 7.212944 -10.984655 2.721929 4.771966 0.005863 -3.238399 12.137778 -0.352546 0.052152 -0.104945 0.000000 0.000000 0.000000 0.000000 0.000000 0.000000 0.000000 
